<?xml version='1.0' encoding='utf-8'?>
<!-- Generator: imaengine 6.0   -->
<svg xmlns:xlink="http://www.w3.org/1999/xlink" xmlns="http://www.w3.org/2000/svg" viewBox="0,0,48,50" style="enable-background:new 0 0 48 50;" version="1.1">
<defs/>
<g id="layer0">
<path d="M43.6556,7.66961L43.6556,29.289C43.6556,34.2058 41.0064,38.7754 36.7397,41.2202L23.7572,48.6409L10.7747,41.2202C6.50792,38.7754 3.85873,34.2058 3.85873,29.289L3.85873,7.66961L4.86818,7.09594C10.6122,3.81401 17.1441,2.07825 23.7596,2.07825C30.3752,2.07825 36.9096,3.81401 42.6511,7.09594L43.6556,7.66961Z" stroke="#2A7DF3" stroke-width="1.65287" fill="#FFFFFF"/>
<path d="M23.7057,19.4692L3.86142,8.67716L3.86142,30.2585C3.86142,34.7052 6.36448,38.8142 10.4261,41.022L10.478,41.0505L10.478,33.8559L17.0946,37.4532L17.0946,44.6453L23.7084,48.2426L23.7084,26.6612L30.325,23.0665L30.325,44.6453L36.9389,41.0505L36.9416,41.0479L36.9416,19.5419L43.5555,15.9445L43.5555,8.67716L23.7057,19.4692ZM17.0919,30.2585L10.4753,26.6612L10.4753,19.4692L17.0919,23.0665L17.0919,30.2585Z" stroke="#2B7DF3" stroke-width="1.34806" fill="#FFFFFF"/>
</g>
</svg>
